<svg xmlns="http://www.w3.org/2000/svg" xmlns:xlink="http://www.w3.org/1999/xlink" width="3000" zoomAndPan="magnify" viewBox="0 0 2250 2250.000011" height="3000" preserveAspectRatio="xMidYMid meet" version="1.0"><defs><g/><clipPath id="476b8b768a"><path d="M 104.878906 986.109375 L 2146.96875 986.109375 L 2146.96875 1264.984375 L 104.878906 1264.984375 Z M 104.878906 986.109375 " clip-rule="nonzero"/></clipPath><clipPath id="3435019c4b"><path d="M 121.398438 1003.917969 L 2127.507812 1003.917969 L 2127.507812 1246.808594 L 121.398438 1246.808594 Z M 121.398438 1003.917969 " clip-rule="nonzero"/></clipPath></defs><g fill="#154042" fill-opacity="1"><g transform="translate(394.468462, 1560.806351)"><g><path d="M 539.796875 -629.546875 L 364.265625 -629.546875 L 364.265625 -696.859375 C 364.265625 -703.890625 361.84375 -710.046875 357 -715.328125 C 352.164062 -720.609375 346.226562 -723.25 339.1875 -723.25 L 266.59375 -723.25 C 259.5625 -723.25 253.625 -720.609375 248.78125 -715.328125 C 243.9375 -710.046875 241.515625 -703.890625 241.515625 -696.859375 L 241.515625 -545.078125 C 241.515625 -538.035156 243.9375 -531.875 248.78125 -526.59375 C 253.625 -521.320312 259.5625 -518.6875 266.59375 -518.6875 L 385.375 -518.6875 C 494.476562 -516.925781 549.03125 -458.851562 549.03125 -344.46875 L 549.03125 -161.015625 C 549.03125 -44.867188 494.476562 13.203125 385.375 13.203125 L 229.640625 13.203125 C 120.535156 13.203125 65.984375 -44.867188 65.984375 -161.015625 L 65.984375 -249.4375 L 241.515625 -249.4375 L 241.515625 -154.421875 C 241.515625 -147.378906 243.9375 -141.21875 248.78125 -135.9375 C 253.625 -130.65625 259.5625 -128.015625 266.59375 -128.015625 L 348.421875 -128.015625 C 355.460938 -128.015625 361.398438 -130.65625 366.234375 -135.9375 C 371.078125 -141.21875 373.5 -147.378906 373.5 -154.421875 L 373.5 -322.03125 C 373.5 -329.070312 371.078125 -335.226562 366.234375 -340.5 C 361.398438 -345.78125 355.460938 -348.421875 348.421875 -348.421875 L 229.640625 -348.421875 C 120.535156 -348.421875 65.984375 -406.492188 65.984375 -522.640625 L 65.984375 -692.890625 C 65.984375 -809.035156 120.535156 -867.109375 229.640625 -867.109375 L 376.140625 -867.109375 C 485.242188 -867.109375 539.796875 -809.035156 539.796875 -692.890625 Z M 539.796875 -629.546875 "/></g></g></g><g fill="#154042" fill-opacity="1"><g transform="translate(932.945881, 1560.806351)"><g><path d="M 249.4375 0 L 64.671875 0 L 64.671875 -692.890625 C 64.671875 -809.035156 119.222656 -867.109375 228.328125 -867.109375 L 325.984375 -867.109375 C 390.210938 -867.109375 435.96875 -845.988281 463.25 -803.75 C 488.757812 -845.988281 534.507812 -867.109375 600.5 -867.109375 L 698.171875 -867.109375 C 807.273438 -867.109375 861.828125 -809.035156 861.828125 -692.890625 L 861.828125 0 L 677.0625 0 L 677.0625 -708.734375 C 677.0625 -715.773438 674.640625 -721.929688 669.796875 -727.203125 C 664.953125 -732.484375 659.015625 -735.125 651.984375 -735.125 L 580.703125 -735.125 C 573.671875 -735.125 567.734375 -732.484375 562.890625 -727.203125 C 558.054688 -721.929688 555.640625 -715.773438 555.640625 -708.734375 L 555.640625 0 L 370.859375 0 L 370.859375 -708.734375 C 370.859375 -715.773438 368.4375 -721.929688 363.59375 -727.203125 C 358.757812 -732.484375 352.820312 -735.125 345.78125 -735.125 L 274.515625 -735.125 C 267.472656 -735.125 261.53125 -732.484375 256.6875 -727.203125 C 251.851562 -721.929688 249.4375 -715.773438 249.4375 -708.734375 Z M 249.4375 0 "/></g></g></g><g clip-path="url(#476b8b768a)"><path fill="#11201e" d="M 104.910156 986.109375 L 2146.9375 986.109375 L 2146.9375 1264.984375 L 104.910156 1264.984375 L 104.910156 986.109375 " fill-opacity="1" fill-rule="nonzero"/></g><g clip-path="url(#3435019c4b)"><path fill="#fbfaf9" d="M 121.503906 1003.917969 L 2127.402344 1003.917969 L 2127.402344 1246.808594 L 121.503906 1246.808594 L 121.503906 1003.917969 " fill-opacity="1" fill-rule="nonzero"/></g><g fill="#11201e" fill-opacity="1"><g transform="translate(553.023521, 1153.737285)"><g><path d="M 23.9375 -52.421875 C 30.6875 -52.421875 36.757812 -50.632812 42.15625 -47.0625 L 38.515625 -39.34375 C 33.210938 -42.5625 28.132812 -44.171875 23.28125 -44.171875 C 20.644531 -44.171875 18.570312 -43.695312 17.0625 -42.75 C 15.550781 -41.8125 14.796875 -40.472656 14.796875 -38.734375 C 14.796875 -37.003906 15.488281 -35.53125 16.875 -34.3125 C 18.269531 -33.101562 20.003906 -32.210938 22.078125 -31.640625 C 24.160156 -31.066406 26.414062 -30.347656 28.84375 -29.484375 C 31.28125 -28.617188 33.535156 -27.703125 35.609375 -26.734375 C 37.691406 -25.765625 39.414062 -24.25 40.78125 -22.1875 C 42.144531 -20.132812 42.828125 -17.644531 42.828125 -14.71875 C 42.828125 -10.15625 41.003906 -6.507812 37.359375 -3.78125 C 33.722656 -1.0625 29.003906 0.296875 23.203125 0.296875 C 19.234375 0.296875 15.390625 -0.445312 11.671875 -1.9375 C 7.953125 -3.425781 4.707031 -5.429688 1.9375 -7.953125 L 5.71875 -15.546875 C 8.351562 -13.109375 11.242188 -11.234375 14.390625 -9.921875 C 17.535156 -8.609375 20.519531 -7.953125 23.34375 -7.953125 C 26.414062 -7.953125 28.804688 -8.507812 30.515625 -9.625 C 32.234375 -10.738281 33.09375 -12.289062 33.09375 -14.28125 C 33.09375 -16.0625 32.394531 -17.554688 31 -18.765625 C 29.613281 -19.984375 27.878906 -20.878906 25.796875 -21.453125 C 23.710938 -22.023438 21.457031 -22.71875 19.03125 -23.53125 C 16.601562 -24.351562 14.347656 -25.222656 12.265625 -26.140625 C 10.179688 -27.054688 8.445312 -28.53125 7.0625 -30.5625 C 5.675781 -32.59375 4.984375 -35.046875 4.984375 -37.921875 C 4.984375 -42.335938 6.71875 -45.859375 10.1875 -48.484375 C 13.65625 -51.109375 18.238281 -52.421875 23.9375 -52.421875 Z M 23.9375 -52.421875 "/></g></g></g><g fill="#11201e" fill-opacity="1"><g transform="translate(658.74193, 1153.737285)"><g><path d="M 15.609375 0 L 6.84375 0 L 6.84375 -52.046875 L 15.609375 -52.046875 Z M 15.609375 0 "/></g></g></g><g fill="#11201e" fill-opacity="1"><g transform="translate(740.688252, 1153.737285)"><g><path d="M 61.859375 0 L 53.765625 0 L 53.6875 -38.890625 L 37.25 -5.421875 L 31.53125 -5.421875 L 15.09375 -38.890625 L 15.09375 0 L 6.84375 0 L 6.84375 -52.046875 L 17.25 -52.046875 L 34.421875 -17.46875 L 51.53125 -52.046875 L 61.859375 -52.046875 Z M 61.859375 0 "/></g></g></g><g fill="#11201e" fill-opacity="1"><g transform="translate(868.915899, 1153.737285)"><g><path d="M 10.484375 -44.734375 C 15.785156 -49.765625 22.328125 -52.28125 30.109375 -52.28125 C 37.898438 -52.28125 44.445312 -49.765625 49.75 -44.734375 C 55.050781 -39.703125 57.703125 -33.46875 57.703125 -26.03125 C 57.703125 -18.59375 55.050781 -12.332031 49.75 -7.25 C 44.445312 -2.164062 37.898438 0.375 30.109375 0.375 C 22.328125 0.375 15.785156 -2.164062 10.484375 -7.25 C 5.179688 -12.332031 2.53125 -18.59375 2.53125 -26.03125 C 2.53125 -33.46875 5.179688 -39.703125 10.484375 -44.734375 Z M 30.1875 -44.390625 C 25.03125 -44.390625 20.617188 -42.617188 16.953125 -39.078125 C 13.285156 -35.535156 11.453125 -31.1875 11.453125 -26.03125 C 11.453125 -20.875 13.296875 -16.5 16.984375 -12.90625 C 20.679688 -9.3125 25.082031 -7.515625 30.1875 -7.515625 C 35.289062 -7.515625 39.648438 -9.3125 43.265625 -12.90625 C 46.890625 -16.5 48.703125 -20.875 48.703125 -26.03125 C 48.703125 -31.1875 46.890625 -35.535156 43.265625 -39.078125 C 39.648438 -42.617188 35.289062 -44.390625 30.1875 -44.390625 Z M 30.1875 -44.390625 "/></g></g></g><g fill="#11201e" fill-opacity="1"><g transform="translate(988.600425, 1153.737285)"><g><path d="M 51.984375 0 L 43.34375 0 L 15.609375 -37.328125 L 15.609375 0 L 6.84375 0 L 6.84375 -52.046875 L 15.46875 -52.046875 L 43.34375 -14.65625 L 43.34375 -52.046875 L 51.984375 -52.046875 Z M 51.984375 0 "/></g></g></g><g fill="#11201e" fill-opacity="1"><g transform="translate(1106.947754, 1153.737285)"><g/></g></g><g fill="#11201e" fill-opacity="1"><g transform="translate(1185.625428, 1153.737285)"><g><path d="M 61.859375 0 L 53.765625 0 L 53.6875 -38.890625 L 37.25 -5.421875 L 31.53125 -5.421875 L 15.09375 -38.890625 L 15.09375 0 L 6.84375 0 L 6.84375 -52.046875 L 17.25 -52.046875 L 34.421875 -17.46875 L 51.53125 -52.046875 L 61.859375 -52.046875 Z M 61.859375 0 "/></g></g></g><g fill="#11201e" fill-opacity="1"><g transform="translate(1313.853038, 1153.737285)"><g><path d="M 40.453125 -11.75 L 14.203125 -11.75 L 9.21875 0 L 0.078125 0 L 23.046875 -52.046875 L 32.046875 -52.046875 L 54.796875 0 L 45.4375 0 Z M 37.109375 -19.5625 L 27.296875 -42.6875 L 17.46875 -19.5625 Z M 37.109375 -19.5625 "/></g></g></g><g fill="#11201e" fill-opacity="1"><g transform="translate(1428.188843, 1153.737285)"><g><path d="M 28.1875 -17.328125 L 28.1875 0 L 19.484375 0 L 19.484375 -17.03125 L 0.078125 -52.046875 L 8.921875 -52.046875 L 23.796875 -26.6875 L 38.375 -52.046875 L 47.296875 -52.046875 Z M 28.1875 -17.328125 "/></g></g></g><g fill="#11201e" fill-opacity="1"><g transform="translate(1535.021578, 1153.737285)"><g><path d="M 44.015625 -44.171875 L 15.609375 -44.171875 L 15.609375 -30.109375 L 41.046875 -30.109375 L 41.046875 -22.234375 L 15.609375 -22.234375 L 15.609375 -7.875 L 44.90625 -7.875 L 44.90625 0 L 6.84375 0 L 6.84375 -52.046875 L 44.015625 -52.046875 Z M 44.015625 -44.171875 "/></g></g></g><g fill="#11201e" fill-opacity="1"><g transform="translate(1643.265772, 1153.737285)"><g><path d="M 39.859375 0 L 30.34375 -15.765625 C 29.84375 -15.710938 29.046875 -15.6875 27.953125 -15.6875 L 15.609375 -15.6875 L 15.609375 0 L 6.84375 0 L 6.84375 -52.046875 L 27.953125 -52.046875 C 34.597656 -52.046875 39.753906 -50.492188 43.421875 -47.390625 C 47.085938 -44.296875 48.921875 -39.925781 48.921875 -34.28125 C 48.921875 -30.113281 47.988281 -26.59375 46.125 -23.71875 C 44.269531 -20.84375 41.609375 -18.738281 38.140625 -17.40625 L 49.828125 0 Z M 15.609375 -23.578125 L 27.953125 -23.578125 C 36.378906 -23.578125 40.59375 -27.070312 40.59375 -34.0625 C 40.59375 -40.800781 36.378906 -44.171875 27.953125 -44.171875 L 15.609375 -44.171875 Z M 15.609375 -23.578125 "/></g></g></g></svg>